<?xml version="1.0" encoding="UTF-8" standalone="no"?>
<!DOCTYPE svg PUBLIC "-//W3C//DTD SVG 1.1//EN"
 "http://www.w3.org/Graphics/SVG/1.1/DTD/svg11.dtd">
<!-- Generated by graphviz version 2.43.0 (0)
 -->
<!-- Title: suffixtree Pages: 1 -->
<svg width="738pt" height="246pt"
 viewBox="0.00 0.00 738.00 245.95" xmlns="http://www.w3.org/2000/svg" xmlns:xlink="http://www.w3.org/1999/xlink">
<g id="graph0" class="graph" transform="scale(1 1) rotate(0) translate(4 241.95)">
<title>suffixtree</title>
<!-- ⊥ -->
<g id="node1" class="node">
<title>⊥</title>
<ellipse fill="none" stroke="black" cx="18" cy="-76.95" rx="18" ry="18"/>
<text text-anchor="middle" x="18" y="-73.25" font-family="Times,serif" font-size="14.00">⊥</text>
</g>
<!-- R -->
<g id="node2" class="node">
<title>R</title>
<ellipse fill="none" stroke="black" cx="129" cy="-76.95" rx="18" ry="18"/>
<text text-anchor="middle" x="129" y="-73.25" font-family="Times,serif" font-size="14.00">R</text>
</g>
<!-- ⊥&#45;&gt;R -->
<g id="edge1" class="edge">
<title>⊥&#45;&gt;R</title>
<path fill="none" stroke="black" d="M36.03,-76.95C53.29,-76.95 80.26,-76.95 100.54,-76.95"/>
<polygon fill="black" stroke="black" points="100.73,-80.45 110.73,-76.95 100.73,-73.45 100.73,-80.45"/>
<text text-anchor="middle" x="73.5" y="-80.75" font-family="Times,serif" font-size="14.00">0,0: *</text>
</g>
<!-- R&#45;&gt;⊥ -->
<g id="edge2" class="edge">
<title>R&#45;&gt;⊥</title>
<path fill="none" stroke="steelblue" d="M110.92,-75.78C105.22,-75.44 98.84,-75.12 93,-74.95 75.67,-74.46 71.33,-74.46 54,-74.95 51.44,-75.03 48.79,-75.13 46.13,-75.25"/>
<polygon fill="steelblue" stroke="steelblue" points="45.88,-71.76 36.08,-75.78 46.25,-78.75 45.88,-71.76"/>
</g>
<!-- 3 -->
<g id="node3" class="node">
<title>3</title>
<ellipse fill="none" stroke="black" cx="258" cy="-128.95" rx="18" ry="18"/>
<text text-anchor="middle" x="258" y="-125.25" font-family="Times,serif" font-size="14.00">3</text>
</g>
<!-- R&#45;&gt;3 -->
<g id="edge3" class="edge">
<title>R&#45;&gt;3</title>
<path fill="none" stroke="black" d="M140.4,-91.41C146.66,-99.02 155.29,-107.82 165,-112.95 184.99,-123.51 210.49,-127.31 229.57,-128.59"/>
<polygon fill="black" stroke="black" points="229.55,-132.09 239.71,-129.07 229.88,-125.1 229.55,-132.09"/>
<text text-anchor="middle" x="193.5" y="-130.75" font-family="Times,serif" font-size="14.00">1,1: a</text>
</g>
<!-- 7 -->
<g id="node5" class="node">
<title>7</title>
<ellipse fill="none" stroke="black" cx="558" cy="-76.95" rx="18" ry="18"/>
<text text-anchor="middle" x="558" y="-73.25" font-family="Times,serif" font-size="14.00">7</text>
</g>
<!-- R&#45;&gt;7 -->
<g id="edge10" class="edge">
<title>R&#45;&gt;7</title>
<path fill="none" stroke="black" d="M147,-76.95C212.48,-76.95 448.7,-76.95 529.6,-76.95"/>
<polygon fill="black" stroke="black" points="529.95,-80.45 539.95,-76.95 529.95,-73.45 529.95,-80.45"/>
<text text-anchor="middle" x="331" y="-80.75" font-family="Times,serif" font-size="14.00">2,2: b</text>
</g>
<!-- 9 -->
<g id="node11" class="node">
<title>9</title>
<ellipse fill="none" stroke="black" cx="258" cy="-30.95" rx="18" ry="18"/>
<text text-anchor="middle" x="258" y="-27.25" font-family="Times,serif" font-size="14.00">9</text>
</g>
<!-- R&#45;&gt;9 -->
<g id="edge14" class="edge">
<title>R&#45;&gt;9</title>
<path fill="none" stroke="black" d="M142.19,-64.19C148.47,-58.37 156.56,-51.9 165,-47.95 185.51,-38.36 210.97,-34.18 229.9,-32.35"/>
<polygon fill="black" stroke="black" points="230.25,-35.83 239.94,-31.54 229.69,-28.86 230.25,-35.83"/>
<text text-anchor="middle" x="193.5" y="-51.75" font-family="Times,serif" font-size="14.00">6,8: cab</text>
</g>
<!-- 3&#45;&gt;R -->
<g id="edge4" class="edge">
<title>3&#45;&gt;R</title>
<path fill="none" stroke="steelblue" d="M240.97,-122.39C219.38,-113.55 180.73,-97.72 155.22,-87.28"/>
<polygon fill="steelblue" stroke="steelblue" points="156.41,-83.98 145.83,-83.43 153.76,-90.46 156.41,-83.98"/>
</g>
<!-- 5 -->
<g id="node4" class="node">
<title>5</title>
<ellipse fill="none" stroke="black" cx="404" cy="-176.95" rx="18" ry="18"/>
<text text-anchor="middle" x="404" y="-173.25" font-family="Times,serif" font-size="14.00">5</text>
</g>
<!-- 3&#45;&gt;5 -->
<g id="edge5" class="edge">
<title>3&#45;&gt;5</title>
<path fill="none" stroke="black" d="M274.42,-137.17C280.43,-140.17 287.44,-143.45 294,-145.95 321.45,-156.43 353.97,-165.23 376.3,-170.75"/>
<polygon fill="black" stroke="black" points="375.54,-174.17 386.08,-173.12 377.19,-167.36 375.54,-174.17"/>
<text text-anchor="middle" x="331" y="-171.75" font-family="Times,serif" font-size="14.00">2,2: b</text>
</g>
<!-- 4 -->
<g id="node8" class="node">
<title>4</title>
<ellipse fill="none" stroke="black" cx="404" cy="-122.95" rx="18" ry="18"/>
<text text-anchor="middle" x="404" y="-119.25" font-family="Times,serif" font-size="14.00">4</text>
</g>
<!-- 3&#45;&gt;4 -->
<g id="edge9" class="edge">
<title>3&#45;&gt;4</title>
<path fill="none" stroke="black" d="M276.08,-128.24C300.66,-127.22 346.25,-125.32 375.57,-124.1"/>
<polygon fill="black" stroke="black" points="376.09,-127.58 385.94,-123.66 375.8,-120.58 376.09,-127.58"/>
<text text-anchor="middle" x="331" y="-130.75" font-family="Times,serif" font-size="14.00">4,8: abcab</text>
</g>
<!-- 5&#45;&gt;7 -->
<g id="edge6" class="edge">
<title>5&#45;&gt;7</title>
<path fill="none" stroke="steelblue" d="M419.57,-167.36C445.95,-150.01 501.81,-113.26 533.59,-92.35"/>
<polygon fill="steelblue" stroke="steelblue" points="535.82,-95.08 542.25,-86.66 531.97,-89.23 535.82,-95.08"/>
</g>
<!-- 1 -->
<g id="node6" class="node">
<title>1</title>
<ellipse fill="none" stroke="black" cx="558" cy="-219.95" rx="18" ry="18"/>
<text text-anchor="middle" x="558" y="-216.25" font-family="Times,serif" font-size="14.00">1</text>
</g>
<!-- 5&#45;&gt;1 -->
<g id="edge7" class="edge">
<title>5&#45;&gt;1</title>
<path fill="none" stroke="black" d="M420.41,-184.81C426.41,-187.66 433.42,-190.72 440,-192.95 470.12,-203.2 505.91,-210.82 529.91,-215.31"/>
<polygon fill="black" stroke="black" points="529.58,-218.81 540.04,-217.15 530.83,-211.92 529.58,-218.81"/>
<text text-anchor="middle" x="481" y="-216.75" font-family="Times,serif" font-size="14.00">3,8: aabcab</text>
</g>
<!-- 6 -->
<g id="node7" class="node">
<title>6</title>
<ellipse fill="none" stroke="black" cx="558" cy="-165.95" rx="18" ry="18"/>
<text text-anchor="middle" x="558" y="-162.25" font-family="Times,serif" font-size="14.00">6</text>
</g>
<!-- 5&#45;&gt;6 -->
<g id="edge8" class="edge">
<title>5&#45;&gt;6</title>
<path fill="none" stroke="black" d="M422.14,-175.71C448.25,-173.82 498.26,-170.2 529.49,-167.94"/>
<polygon fill="black" stroke="black" points="529.97,-171.42 539.69,-167.21 529.46,-164.44 529.97,-171.42"/>
<text text-anchor="middle" x="481" y="-177.75" font-family="Times,serif" font-size="14.00">6,8: cab</text>
</g>
<!-- 7&#45;&gt;R -->
<g id="edge11" class="edge">
<title>7&#45;&gt;R</title>
<path fill="none" stroke="steelblue" d="M541.63,-68.98C496,-46.29 357.23,15.79 240,-3.95 205.21,-9.81 193.46,-9.11 165,-29.95 156.68,-36.05 149.47,-44.68 143.78,-52.89"/>
<polygon fill="steelblue" stroke="steelblue" points="140.71,-51.19 138.23,-61.49 146.6,-54.98 140.71,-51.19"/>
</g>
<!-- 2 -->
<g id="node9" class="node">
<title>2</title>
<ellipse fill="none" stroke="black" cx="712" cy="-103.95" rx="18" ry="18"/>
<text text-anchor="middle" x="712" y="-100.25" font-family="Times,serif" font-size="14.00">2</text>
</g>
<!-- 7&#45;&gt;2 -->
<g id="edge12" class="edge">
<title>7&#45;&gt;2</title>
<path fill="none" stroke="black" d="M575.85,-79.95C601.98,-84.59 652.54,-93.57 683.87,-99.13"/>
<polygon fill="black" stroke="black" points="683.62,-102.64 694.08,-100.95 684.84,-95.75 683.62,-102.64"/>
<text text-anchor="middle" x="635" y="-100.75" font-family="Times,serif" font-size="14.00">3,8: aabcab</text>
</g>
<!-- 8 -->
<g id="node10" class="node">
<title>8</title>
<ellipse fill="none" stroke="black" cx="712" cy="-49.95" rx="18" ry="18"/>
<text text-anchor="middle" x="712" y="-46.25" font-family="Times,serif" font-size="14.00">8</text>
</g>
<!-- 7&#45;&gt;8 -->
<g id="edge13" class="edge">
<title>7&#45;&gt;8</title>
<path fill="none" stroke="black" d="M574.78,-70.19C580.71,-67.89 587.57,-65.51 594,-63.95 624.18,-56.65 659.69,-53.09 683.61,-51.39"/>
<polygon fill="black" stroke="black" points="683.97,-54.88 693.72,-50.74 683.52,-47.89 683.97,-54.88"/>
<text text-anchor="middle" x="635" y="-67.75" font-family="Times,serif" font-size="14.00">6,8: cab</text>
</g>
</g>
</svg>
