<?xml version="1.0" encoding="UTF-8" standalone="no"?>
<!DOCTYPE svg PUBLIC "-//W3C//DTD SVG 1.1//EN"
 "http://www.w3.org/Graphics/SVG/1.1/DTD/svg11.dtd">
<!-- Generated by graphviz version 2.43.0 (0)
 -->
<!-- Title: suffixtree Pages: 1 -->
<svg width="415pt" height="129pt"
 viewBox="0.00 0.00 415.00 129.00" xmlns="http://www.w3.org/2000/svg" xmlns:xlink="http://www.w3.org/1999/xlink">
<g id="graph0" class="graph" transform="scale(1 1) rotate(0) translate(4 125)">
<title>suffixtree</title>
<!-- ⊥ -->
<g id="node1" class="node">
<title>⊥</title>
<ellipse fill="none" stroke="black" cx="18" cy="-48" rx="18" ry="18"/>
<text text-anchor="middle" x="18" y="-44.3" font-family="Times,serif" font-size="14.00">⊥</text>
</g>
<!-- R -->
<g id="node2" class="node">
<title>R</title>
<ellipse fill="none" stroke="black" cx="129" cy="-48" rx="18" ry="18"/>
<text text-anchor="middle" x="129" y="-44.3" font-family="Times,serif" font-size="14.00">R</text>
</g>
<!-- ⊥&#45;&gt;R -->
<g id="edge1" class="edge">
<title>⊥&#45;&gt;R</title>
<path fill="none" stroke="black" d="M36.03,-48C53.29,-48 80.26,-48 100.54,-48"/>
<polygon fill="black" stroke="black" points="100.73,-51.5 110.73,-48 100.73,-44.5 100.73,-51.5"/>
<text text-anchor="middle" x="73.5" y="-51.8" font-family="Times,serif" font-size="14.00">0,0: *</text>
</g>
<!-- R&#45;&gt;⊥ -->
<g id="edge2" class="edge">
<title>R&#45;&gt;⊥</title>
<path fill="none" stroke="steelblue" d="M110.92,-46.83C105.22,-46.49 98.84,-46.17 93,-46 75.67,-45.51 71.33,-45.51 54,-46 51.44,-46.07 48.79,-46.18 46.13,-46.3"/>
<polygon fill="steelblue" stroke="steelblue" points="45.88,-42.8 36.08,-46.83 46.25,-49.79 45.88,-42.8"/>
</g>
<!-- 3 -->
<g id="node3" class="node">
<title>3</title>
<ellipse fill="none" stroke="black" cx="259" cy="-76" rx="18" ry="18"/>
<text text-anchor="middle" x="259" y="-72.3" font-family="Times,serif" font-size="14.00">3</text>
</g>
<!-- R&#45;&gt;3 -->
<g id="edge3" class="edge">
<title>R&#45;&gt;3</title>
<path fill="none" stroke="black" d="M146.26,-53.57C152.12,-55.46 158.82,-57.47 165,-59 187.08,-64.47 212.5,-68.99 231.18,-72"/>
<polygon fill="black" stroke="black" points="230.64,-75.46 241.07,-73.55 231.73,-68.54 230.64,-75.46"/>
<text text-anchor="middle" x="194" y="-73.8" font-family="Times,serif" font-size="14.00">1,1: a</text>
</g>
<!-- 2 -->
<g id="node6" class="node">
<title>2</title>
<ellipse fill="none" stroke="black" cx="259" cy="-18" rx="18" ry="18"/>
<text text-anchor="middle" x="259" y="-14.3" font-family="Times,serif" font-size="14.00">2</text>
</g>
<!-- R&#45;&gt;2 -->
<g id="edge7" class="edge">
<title>R&#45;&gt;2</title>
<path fill="none" stroke="black" d="M145.32,-39.87C151.31,-36.99 158.34,-33.98 165,-32 186.59,-25.58 211.91,-22.01 230.68,-20.09"/>
<polygon fill="black" stroke="black" points="231.26,-23.55 240.89,-19.14 230.61,-16.58 231.26,-23.55"/>
<text text-anchor="middle" x="194" y="-35.8" font-family="Times,serif" font-size="14.00">2,4: baa</text>
</g>
<!-- 3&#45;&gt;R -->
<g id="edge4" class="edge">
<title>3&#45;&gt;R</title>
<path fill="none" stroke="steelblue" d="M242.24,-68.79C236.31,-66.33 229.44,-63.75 223,-62 201.27,-56.1 175.95,-52.5 157.23,-50.42"/>
<polygon fill="steelblue" stroke="steelblue" points="157.35,-46.92 147.04,-49.38 156.63,-53.88 157.35,-46.92"/>
</g>
<!-- 1 -->
<g id="node4" class="node">
<title>1</title>
<ellipse fill="none" stroke="black" cx="389" cy="-103" rx="18" ry="18"/>
<text text-anchor="middle" x="389" y="-99.3" font-family="Times,serif" font-size="14.00">1</text>
</g>
<!-- 3&#45;&gt;1 -->
<g id="edge5" class="edge">
<title>3&#45;&gt;1</title>
<path fill="none" stroke="black" d="M276.73,-79.53C298.2,-84.06 335.69,-91.97 361.16,-97.34"/>
<polygon fill="black" stroke="black" points="360.76,-100.83 371.26,-99.47 362.2,-93.98 360.76,-100.83"/>
<text text-anchor="middle" x="324" y="-98.8" font-family="Times,serif" font-size="14.00">2,4: baa</text>
</g>
<!-- 4 -->
<g id="node5" class="node">
<title>4</title>
<ellipse fill="none" stroke="black" cx="389" cy="-49" rx="18" ry="18"/>
<text text-anchor="middle" x="389" y="-45.3" font-family="Times,serif" font-size="14.00">4</text>
</g>
<!-- 3&#45;&gt;4 -->
<g id="edge6" class="edge">
<title>3&#45;&gt;4</title>
<path fill="none" stroke="black" d="M276.21,-69.8C282.06,-67.73 288.77,-65.56 295,-64 316.88,-58.53 342.18,-54.6 360.87,-52.14"/>
<polygon fill="black" stroke="black" points="361.54,-55.58 371.02,-50.86 360.67,-48.63 361.54,-55.58"/>
<text text-anchor="middle" x="324" y="-67.8" font-family="Times,serif" font-size="14.00">4,4: a</text>
</g>
</g>
</svg>
