<?xml version="1.0" encoding="UTF-8" standalone="no"?>
<!DOCTYPE svg PUBLIC "-//W3C//DTD SVG 1.1//EN"
 "http://www.w3.org/Graphics/SVG/1.1/DTD/svg11.dtd">
<!-- Generated by graphviz version 2.43.0 (0)
 -->
<!-- Title: suffixtree Pages: 1 -->
<svg width="670pt" height="248pt"
 viewBox="0.00 0.00 670.00 247.50" xmlns="http://www.w3.org/2000/svg" xmlns:xlink="http://www.w3.org/1999/xlink">
<g id="graph0" class="graph" transform="scale(1 1) rotate(0) translate(4 243.5)">
<title>suffixtree</title>
<!-- ⊥ -->
<g id="node1" class="node">
<title>⊥</title>
<ellipse fill="none" stroke="black" cx="18" cy="-78.5" rx="18" ry="18"/>
<text text-anchor="middle" x="18" y="-74.8" font-family="Times,serif" font-size="14.00">⊥</text>
</g>
<!-- R -->
<g id="node2" class="node">
<title>R</title>
<ellipse fill="none" stroke="black" cx="129" cy="-78.5" rx="18" ry="18"/>
<text text-anchor="middle" x="129" y="-74.8" font-family="Times,serif" font-size="14.00">R</text>
</g>
<!-- ⊥&#45;&gt;R -->
<g id="edge1" class="edge">
<title>⊥&#45;&gt;R</title>
<path fill="none" stroke="black" d="M36.03,-78.5C53.29,-78.5 80.26,-78.5 100.54,-78.5"/>
<polygon fill="black" stroke="black" points="100.73,-82 110.73,-78.5 100.73,-75 100.73,-82"/>
<text text-anchor="middle" x="73.5" y="-82.3" font-family="Times,serif" font-size="14.00">0,0: *</text>
</g>
<!-- R&#45;&gt;⊥ -->
<g id="edge2" class="edge">
<title>R&#45;&gt;⊥</title>
<path fill="none" stroke="steelblue" d="M110.92,-77.33C105.22,-76.99 98.84,-76.67 93,-76.5 75.67,-76.01 71.33,-76.01 54,-76.5 51.44,-76.57 48.79,-76.68 46.13,-76.8"/>
<polygon fill="steelblue" stroke="steelblue" points="45.88,-73.31 36.08,-77.33 46.25,-80.3 45.88,-73.31"/>
</g>
<!-- 3 -->
<g id="node3" class="node">
<title>3</title>
<ellipse fill="none" stroke="black" cx="241" cy="-130.5" rx="18" ry="18"/>
<text text-anchor="middle" x="241" y="-126.8" font-family="Times,serif" font-size="14.00">3</text>
</g>
<!-- R&#45;&gt;3 -->
<g id="edge3" class="edge">
<title>R&#45;&gt;3</title>
<path fill="none" stroke="black" d="M140.47,-92.81C146.76,-100.39 155.39,-109.19 165,-114.5 179.63,-122.59 197.94,-126.59 212.81,-128.57"/>
<polygon fill="black" stroke="black" points="212.61,-132.07 222.93,-129.68 213.37,-125.11 212.61,-132.07"/>
<text text-anchor="middle" x="185" y="-130.3" font-family="Times,serif" font-size="14.00">1,1: a</text>
</g>
<!-- 7 -->
<g id="node5" class="node">
<title>7</title>
<ellipse fill="none" stroke="black" cx="507" cy="-78.5" rx="18" ry="18"/>
<text text-anchor="middle" x="507" y="-74.8" font-family="Times,serif" font-size="14.00">7</text>
</g>
<!-- R&#45;&gt;7 -->
<g id="edge10" class="edge">
<title>R&#45;&gt;7</title>
<path fill="none" stroke="black" d="M147.13,-78.5C206.71,-78.5 405.22,-78.5 478.51,-78.5"/>
<polygon fill="black" stroke="black" points="478.77,-82 488.77,-78.5 478.77,-75 478.77,-82"/>
<text text-anchor="middle" x="305.5" y="-82.3" font-family="Times,serif" font-size="14.00">2,2: b</text>
</g>
<!-- 9 -->
<g id="node11" class="node">
<title>9</title>
<ellipse fill="none" stroke="black" cx="241" cy="-32.5" rx="18" ry="18"/>
<text text-anchor="middle" x="241" y="-28.8" font-family="Times,serif" font-size="14.00">9</text>
</g>
<!-- R&#45;&gt;9 -->
<g id="edge14" class="edge">
<title>R&#45;&gt;9</title>
<path fill="none" stroke="black" d="M142.26,-65.89C148.56,-60.1 156.65,-53.61 165,-49.5 179.94,-42.15 198.13,-37.92 212.85,-35.53"/>
<polygon fill="black" stroke="black" points="213.46,-38.97 222.86,-34.08 212.46,-32.05 213.46,-38.97"/>
<text text-anchor="middle" x="185" y="-53.3" font-family="Times,serif" font-size="14.00">6,6: c</text>
</g>
<!-- 3&#45;&gt;R -->
<g id="edge4" class="edge">
<title>3&#45;&gt;R</title>
<path fill="none" stroke="steelblue" d="M224.27,-123.07C206.15,-114.5 176.14,-100.31 154.85,-90.25"/>
<polygon fill="steelblue" stroke="steelblue" points="156.3,-87.06 145.76,-85.95 153.31,-93.39 156.3,-87.06"/>
</g>
<!-- 5 -->
<g id="node4" class="node">
<title>5</title>
<ellipse fill="none" stroke="black" cx="370" cy="-178.5" rx="18" ry="18"/>
<text text-anchor="middle" x="370" y="-174.8" font-family="Times,serif" font-size="14.00">5</text>
</g>
<!-- 3&#45;&gt;5 -->
<g id="edge5" class="edge">
<title>3&#45;&gt;5</title>
<path fill="none" stroke="black" d="M257.49,-138.55C263.5,-141.54 270.5,-144.84 277,-147.5 298.85,-156.45 324.33,-164.88 342.93,-170.69"/>
<polygon fill="black" stroke="black" points="341.9,-174.03 352.48,-173.63 343.96,-167.34 341.9,-174.03"/>
<text text-anchor="middle" x="305.5" y="-171.3" font-family="Times,serif" font-size="14.00">2,2: b</text>
</g>
<!-- 4 -->
<g id="node8" class="node">
<title>4</title>
<ellipse fill="none" stroke="black" cx="370" cy="-124.5" rx="18" ry="18"/>
<text text-anchor="middle" x="370" y="-120.8" font-family="Times,serif" font-size="14.00">4</text>
</g>
<!-- 3&#45;&gt;4 -->
<g id="edge9" class="edge">
<title>3&#45;&gt;4</title>
<path fill="none" stroke="black" d="M259.13,-129.69C280.24,-128.69 316.4,-126.99 341.44,-125.8"/>
<polygon fill="black" stroke="black" points="341.91,-129.29 351.74,-125.32 341.58,-122.29 341.91,-129.29"/>
<text text-anchor="middle" x="305.5" y="-132.3" font-family="Times,serif" font-size="14.00">4,6: abc</text>
</g>
<!-- 5&#45;&gt;7 -->
<g id="edge6" class="edge">
<title>5&#45;&gt;7</title>
<path fill="none" stroke="steelblue" d="M384.94,-168.18C408.28,-150.89 455.48,-115.93 483.55,-95.13"/>
<polygon fill="steelblue" stroke="steelblue" points="485.98,-97.69 491.93,-88.92 481.82,-92.06 485.98,-97.69"/>
</g>
<!-- 1 -->
<g id="node6" class="node">
<title>1</title>
<ellipse fill="none" stroke="black" cx="507" cy="-221.5" rx="18" ry="18"/>
<text text-anchor="middle" x="507" y="-217.8" font-family="Times,serif" font-size="14.00">1</text>
</g>
<!-- 5&#45;&gt;1 -->
<g id="edge7" class="edge">
<title>5&#45;&gt;1</title>
<path fill="none" stroke="black" d="M386.45,-186.23C392.46,-189.06 399.46,-192.14 406,-194.5 430.34,-203.28 458.92,-210.73 479.28,-215.56"/>
<polygon fill="black" stroke="black" points="478.57,-218.99 489.11,-217.84 480.16,-212.17 478.57,-218.99"/>
<text text-anchor="middle" x="438.5" y="-216.3" font-family="Times,serif" font-size="14.00">3,6: aabc</text>
</g>
<!-- 6 -->
<g id="node7" class="node">
<title>6</title>
<ellipse fill="none" stroke="black" cx="507" cy="-167.5" rx="18" ry="18"/>
<text text-anchor="middle" x="507" y="-163.8" font-family="Times,serif" font-size="14.00">6</text>
</g>
<!-- 5&#45;&gt;6 -->
<g id="edge8" class="edge">
<title>5&#45;&gt;6</title>
<path fill="none" stroke="black" d="M388.1,-177.11C411.02,-175.24 451.97,-171.9 479.06,-169.7"/>
<polygon fill="black" stroke="black" points="479.36,-173.18 489.04,-168.88 478.79,-166.21 479.36,-173.18"/>
<text text-anchor="middle" x="438.5" y="-179.3" font-family="Times,serif" font-size="14.00">6,6: c</text>
</g>
<!-- 7&#45;&gt;R -->
<g id="edge11" class="edge">
<title>7&#45;&gt;R</title>
<path fill="none" stroke="steelblue" d="M491.04,-69.46C448.99,-45.17 326.13,18.09 223,-5.5 195.1,-11.88 187.26,-15.51 165,-33.5 157.59,-39.49 150.8,-47.35 145.21,-54.81"/>
<polygon fill="steelblue" stroke="steelblue" points="142.15,-53.08 139.24,-63.26 147.87,-57.11 142.15,-53.08"/>
</g>
<!-- 2 -->
<g id="node9" class="node">
<title>2</title>
<ellipse fill="none" stroke="black" cx="644" cy="-105.5" rx="18" ry="18"/>
<text text-anchor="middle" x="644" y="-101.8" font-family="Times,serif" font-size="14.00">2</text>
</g>
<!-- 7&#45;&gt;2 -->
<g id="edge12" class="edge">
<title>7&#45;&gt;2</title>
<path fill="none" stroke="black" d="M524.82,-81.87C547.66,-86.43 588.74,-94.65 615.94,-100.09"/>
<polygon fill="black" stroke="black" points="615.47,-103.57 625.96,-102.09 616.84,-96.7 615.47,-103.57"/>
<text text-anchor="middle" x="575.5" y="-101.3" font-family="Times,serif" font-size="14.00">3,6: aabc</text>
</g>
<!-- 8 -->
<g id="node10" class="node">
<title>8</title>
<ellipse fill="none" stroke="black" cx="644" cy="-51.5" rx="18" ry="18"/>
<text text-anchor="middle" x="644" y="-47.8" font-family="Times,serif" font-size="14.00">8</text>
</g>
<!-- 7&#45;&gt;8 -->
<g id="edge13" class="edge">
<title>7&#45;&gt;8</title>
<path fill="none" stroke="black" d="M524.2,-72.26C530.05,-70.19 536.76,-68.03 543,-66.5 567.29,-60.57 595.5,-56.6 615.75,-54.24"/>
<polygon fill="black" stroke="black" points="616.28,-57.7 625.83,-53.12 615.51,-50.74 616.28,-57.7"/>
<text text-anchor="middle" x="575.5" y="-70.3" font-family="Times,serif" font-size="14.00">6,6: c</text>
</g>
</g>
</svg>
