<?xml version="1.0" encoding="UTF-8" standalone="no"?>
<!DOCTYPE svg PUBLIC "-//W3C//DTD SVG 1.1//EN"
 "http://www.w3.org/Graphics/SVG/1.1/DTD/svg11.dtd">
<!-- Generated by graphviz version 2.43.0 (0)
 -->
<!-- Title: suffixtree Pages: 1 -->
<svg width="267pt" height="44pt"
 viewBox="0.00 0.00 267.00 44.00" xmlns="http://www.w3.org/2000/svg" xmlns:xlink="http://www.w3.org/1999/xlink">
<g id="graph0" class="graph" transform="scale(1 1) rotate(0) translate(4 40)">
<title>suffixtree</title>
<!-- ⊥ -->
<g id="node1" class="node">
<title>⊥</title>
<ellipse fill="none" stroke="black" cx="18" cy="-18" rx="18" ry="18"/>
<text text-anchor="middle" x="18" y="-14.3" font-family="Times,serif" font-size="14.00">⊥</text>
</g>
<!-- R -->
<g id="node2" class="node">
<title>R</title>
<ellipse fill="none" stroke="black" cx="129" cy="-18" rx="18" ry="18"/>
<text text-anchor="middle" x="129" y="-14.3" font-family="Times,serif" font-size="14.00">R</text>
</g>
<!-- ⊥&#45;&gt;R -->
<g id="edge1" class="edge">
<title>⊥&#45;&gt;R</title>
<path fill="none" stroke="black" d="M36.03,-18C53.29,-18 80.26,-18 100.54,-18"/>
<polygon fill="black" stroke="black" points="100.73,-21.5 110.73,-18 100.73,-14.5 100.73,-21.5"/>
<text text-anchor="middle" x="73.5" y="-21.8" font-family="Times,serif" font-size="14.00">0,0: *</text>
</g>
<!-- R&#45;&gt;⊥ -->
<g id="edge2" class="edge">
<title>R&#45;&gt;⊥</title>
<path fill="none" stroke="steelblue" d="M110.92,-16.83C105.22,-16.49 98.84,-16.17 93,-16 75.67,-15.51 71.33,-15.51 54,-16 51.44,-16.07 48.79,-16.18 46.13,-16.3"/>
<polygon fill="steelblue" stroke="steelblue" points="45.88,-12.8 36.08,-16.83 46.25,-19.79 45.88,-12.8"/>
</g>
<!-- 1 -->
<g id="node3" class="node">
<title>1</title>
<ellipse fill="none" stroke="black" cx="241" cy="-18" rx="18" ry="18"/>
<text text-anchor="middle" x="241" y="-14.3" font-family="Times,serif" font-size="14.00">1</text>
</g>
<!-- R&#45;&gt;1 -->
<g id="edge3" class="edge">
<title>R&#45;&gt;1</title>
<path fill="none" stroke="black" d="M147.19,-18C164.79,-18 192.39,-18 212.93,-18"/>
<polygon fill="black" stroke="black" points="212.93,-21.5 222.93,-18 212.93,-14.5 212.93,-21.5"/>
<text text-anchor="middle" x="185" y="-21.8" font-family="Times,serif" font-size="14.00">1,1: a</text>
</g>
</g>
</svg>
