<?xml version="1.0" encoding="UTF-8" standalone="no"?>
<!DOCTYPE svg PUBLIC "-//W3C//DTD SVG 1.1//EN"
 "http://www.w3.org/Graphics/SVG/1.1/DTD/svg11.dtd">
<!-- Generated by graphviz version 2.43.0 (0)
 -->
<!-- Title: suffixtree Pages: 1 -->
<svg width="786pt" height="321pt"
 viewBox="0.00 0.00 786.00 321.08" xmlns="http://www.w3.org/2000/svg" xmlns:xlink="http://www.w3.org/1999/xlink">
<g id="graph0" class="graph" transform="scale(1 1) rotate(0) translate(4 317.08)">
<title>suffixtree</title>
<!-- ⊥ -->
<g id="node1" class="node">
<title>⊥</title>
<ellipse fill="none" stroke="black" cx="18" cy="-109.08" rx="18" ry="18"/>
<text text-anchor="middle" x="18" y="-105.38" font-family="Times,serif" font-size="14.00">⊥</text>
</g>
<!-- R -->
<g id="node2" class="node">
<title>R</title>
<ellipse fill="none" stroke="black" cx="129" cy="-109.08" rx="18" ry="18"/>
<text text-anchor="middle" x="129" y="-105.38" font-family="Times,serif" font-size="14.00">R</text>
</g>
<!-- ⊥&#45;&gt;R -->
<g id="edge1" class="edge">
<title>⊥&#45;&gt;R</title>
<path fill="none" stroke="black" d="M36.03,-109.08C53.29,-109.08 80.26,-109.08 100.54,-109.08"/>
<polygon fill="black" stroke="black" points="100.73,-112.58 110.73,-109.08 100.73,-105.58 100.73,-112.58"/>
<text text-anchor="middle" x="73.5" y="-112.88" font-family="Times,serif" font-size="14.00">0,0: *</text>
</g>
<!-- R&#45;&gt;⊥ -->
<g id="edge2" class="edge">
<title>R&#45;&gt;⊥</title>
<path fill="none" stroke="steelblue" d="M110.92,-107.9C105.22,-107.56 98.84,-107.24 93,-107.08 75.67,-106.58 71.33,-106.58 54,-107.08 51.44,-107.15 48.79,-107.25 46.13,-107.37"/>
<polygon fill="steelblue" stroke="steelblue" points="45.88,-103.88 36.08,-107.9 46.25,-110.87 45.88,-103.88"/>
</g>
<!-- 3 -->
<g id="node3" class="node">
<title>3</title>
<ellipse fill="none" stroke="black" cx="270" cy="-189.08" rx="18" ry="18"/>
<text text-anchor="middle" x="270" y="-185.38" font-family="Times,serif" font-size="14.00">3</text>
</g>
<!-- R&#45;&gt;3 -->
<g id="edge3" class="edge">
<title>R&#45;&gt;3</title>
<path fill="none" stroke="black" d="M135.65,-126C141.05,-139.5 150.53,-157.8 165,-168.08 187.46,-184.02 219.16,-188.5 241.65,-189.47"/>
<polygon fill="black" stroke="black" points="241.79,-192.98 251.87,-189.7 241.95,-185.98 241.79,-192.98"/>
<text text-anchor="middle" x="199.5" y="-191.88" font-family="Times,serif" font-size="14.00">1,1: a</text>
</g>
<!-- 7 -->
<g id="node5" class="node">
<title>7</title>
<ellipse fill="none" stroke="black" cx="594" cy="-132.08" rx="18" ry="18"/>
<text text-anchor="middle" x="594" y="-128.38" font-family="Times,serif" font-size="14.00">7</text>
</g>
<!-- R&#45;&gt;7 -->
<g id="edge11" class="edge">
<title>R&#45;&gt;7</title>
<path fill="none" stroke="black" d="M146.58,-114.13C152.36,-115.68 158.91,-117.2 165,-118.08 314.89,-139.53 497.17,-135.71 565.44,-133.25"/>
<polygon fill="black" stroke="black" points="565.9,-136.73 575.76,-132.86 565.63,-129.74 565.9,-136.73"/>
<text text-anchor="middle" x="349" y="-137.88" font-family="Times,serif" font-size="14.00">2,2: b</text>
</g>
<!-- 9 -->
<g id="node13" class="node">
<title>9</title>
<ellipse fill="none" stroke="black" cx="270" cy="-86.08" rx="18" ry="18"/>
<text text-anchor="middle" x="270" y="-82.38" font-family="Times,serif" font-size="14.00">9</text>
</g>
<!-- R&#45;&gt;9 -->
<g id="edge16" class="edge">
<title>R&#45;&gt;9</title>
<path fill="none" stroke="black" d="M147.09,-106.12C152.78,-105.14 159.16,-104.05 165,-103.08 191.12,-98.7 220.96,-93.84 241.95,-90.44"/>
<polygon fill="black" stroke="black" points="242.75,-93.85 252.06,-88.8 241.63,-86.94 242.75,-93.85"/>
<text text-anchor="middle" x="199.5" y="-106.88" font-family="Times,serif" font-size="14.00">6,9: cab#</text>
</g>
<!-- 12 -->
<g id="node14" class="node">
<title>12</title>
<ellipse fill="none" stroke="black" cx="270" cy="-32.08" rx="18" ry="18"/>
<text text-anchor="middle" x="270" y="-28.38" font-family="Times,serif" font-size="14.00">12</text>
</g>
<!-- R&#45;&gt;12 -->
<g id="edge17" class="edge">
<title>R&#45;&gt;12</title>
<path fill="none" stroke="black" d="M140.84,-95.36C147.24,-87.98 155.86,-79.16 165,-73.08 189.26,-56.92 220.86,-45.6 242.83,-39.01"/>
<polygon fill="black" stroke="black" points="243.83,-42.37 252.48,-36.24 241.9,-35.64 243.83,-42.37"/>
<text text-anchor="middle" x="199.5" y="-76.88" font-family="Times,serif" font-size="14.00">9,9: #</text>
</g>
<!-- 3&#45;&gt;R -->
<g id="edge4" class="edge">
<title>3&#45;&gt;R</title>
<path fill="none" stroke="steelblue" d="M253.81,-180.89C247.71,-177.7 240.58,-174.1 234,-171.08 203.92,-157.27 192.72,-161.16 165,-143.08 159.23,-139.31 153.59,-134.5 148.58,-129.69"/>
<polygon fill="steelblue" stroke="steelblue" points="150.81,-126.97 141.3,-122.29 145.82,-131.88 150.81,-126.97"/>
</g>
<!-- 5 -->
<g id="node4" class="node">
<title>5</title>
<ellipse fill="none" stroke="black" cx="428" cy="-241.08" rx="18" ry="18"/>
<text text-anchor="middle" x="428" y="-237.38" font-family="Times,serif" font-size="14.00">5</text>
</g>
<!-- 3&#45;&gt;5 -->
<g id="edge5" class="edge">
<title>3&#45;&gt;5</title>
<path fill="none" stroke="black" d="M286.02,-197.64C292.1,-200.88 299.26,-204.43 306,-207.08 337.63,-219.51 375.56,-229.4 400.42,-235.24"/>
<polygon fill="black" stroke="black" points="399.68,-238.66 410.21,-237.49 401.25,-231.84 399.68,-238.66"/>
<text text-anchor="middle" x="349" y="-236.88" font-family="Times,serif" font-size="14.00">2,2: b</text>
</g>
<!-- 4 -->
<g id="node9" class="node">
<title>4</title>
<ellipse fill="none" stroke="black" cx="428" cy="-187.08" rx="18" ry="18"/>
<text text-anchor="middle" x="428" y="-183.38" font-family="Times,serif" font-size="14.00">4</text>
</g>
<!-- 3&#45;&gt;4 -->
<g id="edge10" class="edge">
<title>3&#45;&gt;4</title>
<path fill="none" stroke="black" d="M288.29,-188.85C315.23,-188.51 367.46,-187.84 399.58,-187.43"/>
<polygon fill="black" stroke="black" points="399.68,-190.93 409.63,-187.3 399.59,-183.93 399.68,-190.93"/>
<text text-anchor="middle" x="349" y="-191.88" font-family="Times,serif" font-size="14.00">4,9: abcab#</text>
</g>
<!-- 5&#45;&gt;7 -->
<g id="edge6" class="edge">
<title>5&#45;&gt;7</title>
<path fill="none" stroke="steelblue" d="M438.51,-226.36C447.69,-212.3 460.68,-192.85 464,-190.08 480.48,-176.31 534.66,-154.28 567.33,-141.7"/>
<polygon fill="steelblue" stroke="steelblue" points="568.62,-144.96 576.71,-138.12 566.12,-138.42 568.62,-144.96"/>
</g>
<!-- 1 -->
<g id="node6" class="node">
<title>1</title>
<ellipse fill="none" stroke="black" cx="594" cy="-295.08" rx="18" ry="18"/>
<text text-anchor="middle" x="594" y="-291.38" font-family="Times,serif" font-size="14.00">1</text>
</g>
<!-- 5&#45;&gt;1 -->
<g id="edge7" class="edge">
<title>5&#45;&gt;1</title>
<path fill="none" stroke="black" d="M443.96,-250.19C450.03,-253.62 457.2,-257.35 464,-260.08 498.08,-273.73 539.3,-283.88 565.83,-289.63"/>
<polygon fill="black" stroke="black" points="565.39,-293.12 575.89,-291.76 566.83,-286.27 565.39,-293.12"/>
<text text-anchor="middle" x="511" y="-290.88" font-family="Times,serif" font-size="14.00">3,9: aabcab#</text>
</g>
<!-- 6 -->
<g id="node7" class="node">
<title>6</title>
<ellipse fill="none" stroke="black" cx="594" cy="-241.08" rx="18" ry="18"/>
<text text-anchor="middle" x="594" y="-237.38" font-family="Times,serif" font-size="14.00">6</text>
</g>
<!-- 5&#45;&gt;6 -->
<g id="edge8" class="edge">
<title>5&#45;&gt;6</title>
<path fill="none" stroke="black" d="M446.24,-241.08C474.74,-241.08 531.88,-241.08 565.84,-241.08"/>
<polygon fill="black" stroke="black" points="565.99,-244.58 575.99,-241.08 565.99,-237.58 565.99,-244.58"/>
<text text-anchor="middle" x="511" y="-244.88" font-family="Times,serif" font-size="14.00">6,9: cab#</text>
</g>
<!-- 10 -->
<g id="node8" class="node">
<title>10</title>
<ellipse fill="none" stroke="black" cx="594" cy="-187.08" rx="18" ry="18"/>
<text text-anchor="middle" x="594" y="-183.38" font-family="Times,serif" font-size="14.00">10</text>
</g>
<!-- 5&#45;&gt;10 -->
<g id="edge9" class="edge">
<title>5&#45;&gt;10</title>
<path fill="none" stroke="black" d="M443.96,-231.96C450.03,-228.53 457.2,-224.8 464,-222.08 498.08,-208.42 539.3,-198.28 565.83,-192.52"/>
<polygon fill="black" stroke="black" points="566.83,-195.88 575.89,-190.39 565.39,-189.03 566.83,-195.88"/>
<text text-anchor="middle" x="511" y="-225.88" font-family="Times,serif" font-size="14.00">9,9: #</text>
</g>
<!-- 7&#45;&gt;R -->
<g id="edge12" class="edge">
<title>7&#45;&gt;R</title>
<path fill="none" stroke="steelblue" d="M578.13,-123.36C535.07,-98.69 405.84,-28.63 288,-5.08 232.38,6.04 206.89,-0.84 165,-39.08 152.28,-50.69 143.58,-67.96 138.03,-82.44"/>
<polygon fill="steelblue" stroke="steelblue" points="134.71,-81.32 134.68,-91.92 141.31,-83.65 134.71,-81.32"/>
</g>
<!-- 2 -->
<g id="node10" class="node">
<title>2</title>
<ellipse fill="none" stroke="black" cx="760" cy="-186.08" rx="18" ry="18"/>
<text text-anchor="middle" x="760" y="-182.38" font-family="Times,serif" font-size="14.00">2</text>
</g>
<!-- 7&#45;&gt;2 -->
<g id="edge13" class="edge">
<title>7&#45;&gt;2</title>
<path fill="none" stroke="black" d="M609.96,-141.19C616.03,-144.62 623.2,-148.35 630,-151.08 664.08,-164.73 705.3,-174.88 731.83,-180.63"/>
<polygon fill="black" stroke="black" points="731.39,-184.12 741.89,-182.76 732.83,-177.27 731.39,-184.12"/>
<text text-anchor="middle" x="677" y="-181.88" font-family="Times,serif" font-size="14.00">3,9: aabcab#</text>
</g>
<!-- 8 -->
<g id="node11" class="node">
<title>8</title>
<ellipse fill="none" stroke="black" cx="760" cy="-132.08" rx="18" ry="18"/>
<text text-anchor="middle" x="760" y="-128.38" font-family="Times,serif" font-size="14.00">8</text>
</g>
<!-- 7&#45;&gt;8 -->
<g id="edge14" class="edge">
<title>7&#45;&gt;8</title>
<path fill="none" stroke="black" d="M612.24,-132.08C640.74,-132.08 697.88,-132.08 731.84,-132.08"/>
<polygon fill="black" stroke="black" points="731.99,-135.58 741.99,-132.08 731.99,-128.58 731.99,-135.58"/>
<text text-anchor="middle" x="677" y="-135.88" font-family="Times,serif" font-size="14.00">6,9: cab#</text>
</g>
<!-- 11 -->
<g id="node12" class="node">
<title>11</title>
<ellipse fill="none" stroke="black" cx="760" cy="-78.08" rx="18" ry="18"/>
<text text-anchor="middle" x="760" y="-74.38" font-family="Times,serif" font-size="14.00">11</text>
</g>
<!-- 7&#45;&gt;11 -->
<g id="edge15" class="edge">
<title>7&#45;&gt;11</title>
<path fill="none" stroke="black" d="M609.96,-122.96C616.03,-119.53 623.2,-115.8 630,-113.08 664.08,-99.42 705.3,-89.28 731.83,-83.52"/>
<polygon fill="black" stroke="black" points="732.83,-86.88 741.89,-81.39 731.39,-80.03 732.83,-86.88"/>
<text text-anchor="middle" x="677" y="-116.88" font-family="Times,serif" font-size="14.00">9,9: #</text>
</g>
</g>
</svg>
