<?xml version="1.0" encoding="UTF-8" standalone="no"?>
<!DOCTYPE svg PUBLIC "-//W3C//DTD SVG 1.1//EN"
 "http://www.w3.org/Graphics/SVG/1.1/DTD/svg11.dtd">
<!-- Generated by graphviz version 2.43.0 (0)
 -->
<!-- Title: suffixtree Pages: 1 -->
<svg width="285pt" height="98pt"
 viewBox="0.00 0.00 285.00 98.00" xmlns="http://www.w3.org/2000/svg" xmlns:xlink="http://www.w3.org/1999/xlink">
<g id="graph0" class="graph" transform="scale(1 1) rotate(0) translate(4 94)">
<title>suffixtree</title>
<!-- ⊥ -->
<g id="node1" class="node">
<title>⊥</title>
<ellipse fill="none" stroke="black" cx="18" cy="-45" rx="18" ry="18"/>
<text text-anchor="middle" x="18" y="-41.3" font-family="Times,serif" font-size="14.00">⊥</text>
</g>
<!-- R -->
<g id="node2" class="node">
<title>R</title>
<ellipse fill="none" stroke="black" cx="129" cy="-45" rx="18" ry="18"/>
<text text-anchor="middle" x="129" y="-41.3" font-family="Times,serif" font-size="14.00">R</text>
</g>
<!-- ⊥&#45;&gt;R -->
<g id="edge1" class="edge">
<title>⊥&#45;&gt;R</title>
<path fill="none" stroke="black" d="M36.03,-45C53.29,-45 80.26,-45 100.54,-45"/>
<polygon fill="black" stroke="black" points="100.73,-48.5 110.73,-45 100.73,-41.5 100.73,-48.5"/>
<text text-anchor="middle" x="73.5" y="-48.8" font-family="Times,serif" font-size="14.00">0,0: *</text>
</g>
<!-- R&#45;&gt;⊥ -->
<g id="edge2" class="edge">
<title>R&#45;&gt;⊥</title>
<path fill="none" stroke="steelblue" d="M110.92,-43.83C105.22,-43.49 98.84,-43.17 93,-43 75.67,-42.51 71.33,-42.51 54,-43 51.44,-43.07 48.79,-43.18 46.13,-43.3"/>
<polygon fill="steelblue" stroke="steelblue" points="45.88,-39.8 36.08,-43.83 46.25,-46.79 45.88,-39.8"/>
</g>
<!-- 1 -->
<g id="node3" class="node">
<title>1</title>
<ellipse fill="none" stroke="black" cx="259" cy="-72" rx="18" ry="18"/>
<text text-anchor="middle" x="259" y="-68.3" font-family="Times,serif" font-size="14.00">1</text>
</g>
<!-- R&#45;&gt;1 -->
<g id="edge3" class="edge">
<title>R&#45;&gt;1</title>
<path fill="none" stroke="black" d="M146.73,-48.53C168.2,-53.06 205.69,-60.97 231.16,-66.34"/>
<polygon fill="black" stroke="black" points="230.76,-69.83 241.26,-68.47 232.2,-62.98 230.76,-69.83"/>
<text text-anchor="middle" x="194" y="-67.8" font-family="Times,serif" font-size="14.00">1,3: aba</text>
</g>
<!-- 2 -->
<g id="node4" class="node">
<title>2</title>
<ellipse fill="none" stroke="black" cx="259" cy="-18" rx="18" ry="18"/>
<text text-anchor="middle" x="259" y="-14.3" font-family="Times,serif" font-size="14.00">2</text>
</g>
<!-- R&#45;&gt;2 -->
<g id="edge4" class="edge">
<title>R&#45;&gt;2</title>
<path fill="none" stroke="black" d="M146.21,-38.8C152.06,-36.73 158.77,-34.56 165,-33 186.88,-27.53 212.18,-23.6 230.87,-21.14"/>
<polygon fill="black" stroke="black" points="231.54,-24.58 241.02,-19.86 230.67,-17.63 231.54,-24.58"/>
<text text-anchor="middle" x="194" y="-36.8" font-family="Times,serif" font-size="14.00">2,3: ba</text>
</g>
</g>
</svg>
