<?xml version="1.0" encoding="UTF-8" standalone="no"?>
<!DOCTYPE svg PUBLIC "-//W3C//DTD SVG 1.1//EN"
 "http://www.w3.org/Graphics/SVG/1.1/DTD/svg11.dtd">
<!-- Generated by graphviz version 2.43.0 (0)
 -->
<!-- Title: suffixtree Pages: 1 -->
<svg width="702pt" height="247pt"
 viewBox="0.00 0.00 702.00 246.70" xmlns="http://www.w3.org/2000/svg" xmlns:xlink="http://www.w3.org/1999/xlink">
<g id="graph0" class="graph" transform="scale(1 1) rotate(0) translate(4 242.7)">
<title>suffixtree</title>
<!-- ⊥ -->
<g id="node1" class="node">
<title>⊥</title>
<ellipse fill="none" stroke="black" cx="18" cy="-77.7" rx="18" ry="18"/>
<text text-anchor="middle" x="18" y="-74" font-family="Times,serif" font-size="14.00">⊥</text>
</g>
<!-- R -->
<g id="node2" class="node">
<title>R</title>
<ellipse fill="none" stroke="black" cx="129" cy="-77.7" rx="18" ry="18"/>
<text text-anchor="middle" x="129" y="-74" font-family="Times,serif" font-size="14.00">R</text>
</g>
<!-- ⊥&#45;&gt;R -->
<g id="edge1" class="edge">
<title>⊥&#45;&gt;R</title>
<path fill="none" stroke="black" d="M36.03,-77.7C53.29,-77.7 80.26,-77.7 100.54,-77.7"/>
<polygon fill="black" stroke="black" points="100.73,-81.2 110.73,-77.7 100.73,-74.2 100.73,-81.2"/>
<text text-anchor="middle" x="73.5" y="-81.5" font-family="Times,serif" font-size="14.00">0,0: *</text>
</g>
<!-- R&#45;&gt;⊥ -->
<g id="edge2" class="edge">
<title>R&#45;&gt;⊥</title>
<path fill="none" stroke="steelblue" d="M110.92,-76.53C105.22,-76.19 98.84,-75.87 93,-75.7 75.67,-75.21 71.33,-75.21 54,-75.7 51.44,-75.77 48.79,-75.88 46.13,-76"/>
<polygon fill="steelblue" stroke="steelblue" points="45.88,-72.5 36.08,-76.53 46.25,-79.5 45.88,-72.5"/>
</g>
<!-- 3 -->
<g id="node3" class="node">
<title>3</title>
<ellipse fill="none" stroke="black" cx="249" cy="-129.7" rx="18" ry="18"/>
<text text-anchor="middle" x="249" y="-126" font-family="Times,serif" font-size="14.00">3</text>
</g>
<!-- R&#45;&gt;3 -->
<g id="edge3" class="edge">
<title>R&#45;&gt;3</title>
<path fill="none" stroke="black" d="M140.43,-92.09C146.71,-99.68 155.33,-108.48 165,-113.7 182.06,-122.91 203.6,-126.87 220.47,-128.55"/>
<polygon fill="black" stroke="black" points="220.54,-132.07 230.78,-129.36 221.09,-125.09 220.54,-132.07"/>
<text text-anchor="middle" x="189" y="-130.5" font-family="Times,serif" font-size="14.00">1,1: a</text>
</g>
<!-- 7 -->
<g id="node5" class="node">
<title>7</title>
<ellipse fill="none" stroke="black" cx="531" cy="-77.7" rx="18" ry="18"/>
<text text-anchor="middle" x="531" y="-74" font-family="Times,serif" font-size="14.00">7</text>
</g>
<!-- R&#45;&gt;7 -->
<g id="edge10" class="edge">
<title>R&#45;&gt;7</title>
<path fill="none" stroke="black" d="M147.19,-77.7C209.76,-77.7 425.73,-77.7 502.58,-77.7"/>
<polygon fill="black" stroke="black" points="502.88,-81.2 512.88,-77.7 502.88,-74.2 502.88,-81.2"/>
<text text-anchor="middle" x="317.5" y="-81.5" font-family="Times,serif" font-size="14.00">2,2: b</text>
</g>
<!-- 9 -->
<g id="node11" class="node">
<title>9</title>
<ellipse fill="none" stroke="black" cx="249" cy="-31.7" rx="18" ry="18"/>
<text text-anchor="middle" x="249" y="-28" font-family="Times,serif" font-size="14.00">9</text>
</g>
<!-- R&#45;&gt;9 -->
<g id="edge14" class="edge">
<title>R&#45;&gt;9</title>
<path fill="none" stroke="black" d="M142.23,-65.01C148.51,-59.2 156.6,-52.73 165,-48.7 182.52,-40.3 204.05,-36.05 220.79,-33.89"/>
<polygon fill="black" stroke="black" points="221.46,-37.34 231.02,-32.76 220.69,-30.38 221.46,-37.34"/>
<text text-anchor="middle" x="189" y="-52.5" font-family="Times,serif" font-size="14.00">6,7: ca</text>
</g>
<!-- 3&#45;&gt;R -->
<g id="edge4" class="edge">
<title>3&#45;&gt;R</title>
<path fill="none" stroke="steelblue" d="M232.34,-122.8C212.64,-114.12 178.59,-99.11 155.21,-88.81"/>
<polygon fill="steelblue" stroke="steelblue" points="156.48,-85.54 145.91,-84.71 153.65,-91.95 156.48,-85.54"/>
</g>
<!-- 5 -->
<g id="node4" class="node">
<title>5</title>
<ellipse fill="none" stroke="black" cx="386" cy="-177.7" rx="18" ry="18"/>
<text text-anchor="middle" x="386" y="-174" font-family="Times,serif" font-size="14.00">5</text>
</g>
<!-- 3&#45;&gt;5 -->
<g id="edge5" class="edge">
<title>3&#45;&gt;5</title>
<path fill="none" stroke="black" d="M265.45,-137.83C271.46,-140.83 278.47,-144.12 285,-146.7 309.47,-156.37 338.24,-165.02 358.63,-170.71"/>
<polygon fill="black" stroke="black" points="357.89,-174.13 368.46,-173.4 359.74,-167.38 357.89,-174.13"/>
<text text-anchor="middle" x="317.5" y="-171.5" font-family="Times,serif" font-size="14.00">2,2: b</text>
</g>
<!-- 4 -->
<g id="node8" class="node">
<title>4</title>
<ellipse fill="none" stroke="black" cx="386" cy="-123.7" rx="18" ry="18"/>
<text text-anchor="middle" x="386" y="-120" font-family="Times,serif" font-size="14.00">4</text>
</g>
<!-- 3&#45;&gt;4 -->
<g id="edge9" class="edge">
<title>3&#45;&gt;4</title>
<path fill="none" stroke="black" d="M267.1,-128.94C289.9,-127.93 330.52,-126.12 357.61,-124.92"/>
<polygon fill="black" stroke="black" points="357.78,-128.41 367.61,-124.47 357.47,-121.42 357.78,-128.41"/>
<text text-anchor="middle" x="317.5" y="-131.5" font-family="Times,serif" font-size="14.00">4,7: abca</text>
</g>
<!-- 5&#45;&gt;7 -->
<g id="edge6" class="edge">
<title>5&#45;&gt;7</title>
<path fill="none" stroke="steelblue" d="M401.23,-167.75C426.07,-150.38 477.53,-114.39 507.32,-93.56"/>
<polygon fill="steelblue" stroke="steelblue" points="509.63,-96.21 515.82,-87.61 505.62,-90.48 509.63,-96.21"/>
</g>
<!-- 1 -->
<g id="node6" class="node">
<title>1</title>
<ellipse fill="none" stroke="black" cx="531" cy="-220.7" rx="18" ry="18"/>
<text text-anchor="middle" x="531" y="-217" font-family="Times,serif" font-size="14.00">1</text>
</g>
<!-- 5&#45;&gt;1 -->
<g id="edge7" class="edge">
<title>5&#45;&gt;1</title>
<path fill="none" stroke="black" d="M402.43,-185.49C408.44,-188.33 415.44,-191.4 422,-193.7 449.12,-203.2 481.16,-210.77 503.27,-215.45"/>
<polygon fill="black" stroke="black" points="502.75,-218.92 513.25,-217.51 504.17,-212.06 502.75,-218.92"/>
<text text-anchor="middle" x="458.5" y="-216.5" font-family="Times,serif" font-size="14.00">3,7: aabca</text>
</g>
<!-- 6 -->
<g id="node7" class="node">
<title>6</title>
<ellipse fill="none" stroke="black" cx="531" cy="-166.7" rx="18" ry="18"/>
<text text-anchor="middle" x="531" y="-163" font-family="Times,serif" font-size="14.00">6</text>
</g>
<!-- 5&#45;&gt;6 -->
<g id="edge8" class="edge">
<title>5&#45;&gt;6</title>
<path fill="none" stroke="black" d="M403.97,-176.4C428.24,-174.53 473.16,-171.07 502.29,-168.83"/>
<polygon fill="black" stroke="black" points="502.91,-172.29 512.61,-168.04 502.37,-165.32 502.91,-172.29"/>
<text text-anchor="middle" x="458.5" y="-178.5" font-family="Times,serif" font-size="14.00">6,7: ca</text>
</g>
<!-- 7&#45;&gt;R -->
<g id="edge11" class="edge">
<title>7&#45;&gt;R</title>
<path fill="none" stroke="steelblue" d="M514.86,-69.21C471.15,-45.74 340.84,16.9 231,-4.7 199.9,-10.82 190.15,-12.41 165,-31.7 157.13,-37.74 150.12,-45.96 144.48,-53.8"/>
<polygon fill="steelblue" stroke="steelblue" points="141.42,-52.08 138.72,-62.33 147.22,-56 141.42,-52.08"/>
</g>
<!-- 2 -->
<g id="node9" class="node">
<title>2</title>
<ellipse fill="none" stroke="black" cx="676" cy="-104.7" rx="18" ry="18"/>
<text text-anchor="middle" x="676" y="-101" font-family="Times,serif" font-size="14.00">2</text>
</g>
<!-- 7&#45;&gt;2 -->
<g id="edge12" class="edge">
<title>7&#45;&gt;2</title>
<path fill="none" stroke="black" d="M548.97,-80.9C573.48,-85.53 619.04,-94.13 648.15,-99.63"/>
<polygon fill="black" stroke="black" points="647.58,-103.08 658.06,-101.5 648.88,-96.21 647.58,-103.08"/>
<text text-anchor="middle" x="603.5" y="-100.5" font-family="Times,serif" font-size="14.00">3,7: aabca</text>
</g>
<!-- 8 -->
<g id="node10" class="node">
<title>8</title>
<ellipse fill="none" stroke="black" cx="676" cy="-50.7" rx="18" ry="18"/>
<text text-anchor="middle" x="676" y="-47" font-family="Times,serif" font-size="14.00">8</text>
</g>
<!-- 7&#45;&gt;8 -->
<g id="edge13" class="edge">
<title>7&#45;&gt;8</title>
<path fill="none" stroke="black" d="M548.19,-71.42C554.04,-69.35 560.75,-67.19 567,-65.7 594.22,-59.21 626.01,-55.21 648.02,-52.99"/>
<polygon fill="black" stroke="black" points="648.35,-56.48 657.98,-52.05 647.69,-49.51 648.35,-56.48"/>
<text text-anchor="middle" x="603.5" y="-69.5" font-family="Times,serif" font-size="14.00">6,7: ca</text>
</g>
</g>
</svg>
