<?xml version="1.0" encoding="UTF-8" standalone="no"?>
<!DOCTYPE svg PUBLIC "-//W3C//DTD SVG 1.1//EN"
 "http://www.w3.org/Graphics/SVG/1.1/DTD/svg11.dtd">
<!-- Generated by graphviz version 2.43.0 (0)
 -->
<!-- Title: suffixtree Pages: 1 -->
<svg width="433pt" height="129pt"
 viewBox="0.00 0.00 433.00 129.00" xmlns="http://www.w3.org/2000/svg" xmlns:xlink="http://www.w3.org/1999/xlink">
<g id="graph0" class="graph" transform="scale(1 1) rotate(0) translate(4 125)">
<title>suffixtree</title>
<!-- ⊥ -->
<g id="node1" class="node">
<title>⊥</title>
<ellipse fill="none" stroke="black" cx="18" cy="-48" rx="18" ry="18"/>
<text text-anchor="middle" x="18" y="-44.3" font-family="Times,serif" font-size="14.00">⊥</text>
</g>
<!-- R -->
<g id="node2" class="node">
<title>R</title>
<ellipse fill="none" stroke="black" cx="129" cy="-48" rx="18" ry="18"/>
<text text-anchor="middle" x="129" y="-44.3" font-family="Times,serif" font-size="14.00">R</text>
</g>
<!-- ⊥&#45;&gt;R -->
<g id="edge1" class="edge">
<title>⊥&#45;&gt;R</title>
<path fill="none" stroke="black" d="M36.03,-48C53.29,-48 80.26,-48 100.54,-48"/>
<polygon fill="black" stroke="black" points="100.73,-51.5 110.73,-48 100.73,-44.5 100.73,-51.5"/>
<text text-anchor="middle" x="73.5" y="-51.8" font-family="Times,serif" font-size="14.00">0,0: *</text>
</g>
<!-- R&#45;&gt;⊥ -->
<g id="edge2" class="edge">
<title>R&#45;&gt;⊥</title>
<path fill="none" stroke="steelblue" d="M110.92,-46.83C105.22,-46.49 98.84,-46.17 93,-46 75.67,-45.51 71.33,-45.51 54,-46 51.44,-46.07 48.79,-46.18 46.13,-46.3"/>
<polygon fill="steelblue" stroke="steelblue" points="45.88,-42.8 36.08,-46.83 46.25,-49.79 45.88,-42.8"/>
</g>
<!-- 3 -->
<g id="node3" class="node">
<title>3</title>
<ellipse fill="none" stroke="black" cx="268" cy="-76" rx="18" ry="18"/>
<text text-anchor="middle" x="268" y="-72.3" font-family="Times,serif" font-size="14.00">3</text>
</g>
<!-- R&#45;&gt;3 -->
<g id="edge3" class="edge">
<title>R&#45;&gt;3</title>
<path fill="none" stroke="black" d="M146.25,-53.62C152.11,-55.52 158.81,-57.52 165,-59 190.13,-65.01 219.24,-69.64 239.91,-72.53"/>
<polygon fill="black" stroke="black" points="239.51,-76.01 249.89,-73.89 240.45,-69.08 239.51,-76.01"/>
<text text-anchor="middle" x="198.5" y="-74.8" font-family="Times,serif" font-size="14.00">1,1: a</text>
</g>
<!-- 2 -->
<g id="node6" class="node">
<title>2</title>
<ellipse fill="none" stroke="black" cx="268" cy="-18" rx="18" ry="18"/>
<text text-anchor="middle" x="268" y="-14.3" font-family="Times,serif" font-size="14.00">2</text>
</g>
<!-- R&#45;&gt;2 -->
<g id="edge7" class="edge">
<title>R&#45;&gt;2</title>
<path fill="none" stroke="black" d="M144.9,-39.44C150.96,-36.31 158.14,-33.04 165,-31 189.62,-23.67 218.8,-20.47 239.62,-19.08"/>
<polygon fill="black" stroke="black" points="239.9,-22.57 249.68,-18.5 239.5,-15.58 239.9,-22.57"/>
<text text-anchor="middle" x="198.5" y="-34.8" font-family="Times,serif" font-size="14.00">2,5: baab</text>
</g>
<!-- 3&#45;&gt;R -->
<g id="edge4" class="edge">
<title>3&#45;&gt;R</title>
<path fill="none" stroke="steelblue" d="M251.25,-68.75C245.32,-66.28 238.45,-63.71 232,-62 207.13,-55.43 177.99,-51.82 157.24,-49.92"/>
<polygon fill="steelblue" stroke="steelblue" points="157.47,-46.43 147.22,-49.08 156.89,-53.4 157.47,-46.43"/>
</g>
<!-- 1 -->
<g id="node4" class="node">
<title>1</title>
<ellipse fill="none" stroke="black" cx="407" cy="-103" rx="18" ry="18"/>
<text text-anchor="middle" x="407" y="-99.3" font-family="Times,serif" font-size="14.00">1</text>
</g>
<!-- 3&#45;&gt;1 -->
<g id="edge5" class="edge">
<title>3&#45;&gt;1</title>
<path fill="none" stroke="black" d="M285.8,-79.31C309.11,-83.91 351.53,-92.27 379.24,-97.73"/>
<polygon fill="black" stroke="black" points="378.58,-101.16 389.06,-99.66 379.93,-94.29 378.58,-101.16"/>
<text text-anchor="middle" x="337.5" y="-98.8" font-family="Times,serif" font-size="14.00">2,5: baab</text>
</g>
<!-- 4 -->
<g id="node5" class="node">
<title>4</title>
<ellipse fill="none" stroke="black" cx="407" cy="-49" rx="18" ry="18"/>
<text text-anchor="middle" x="407" y="-45.3" font-family="Times,serif" font-size="14.00">4</text>
</g>
<!-- 3&#45;&gt;4 -->
<g id="edge6" class="edge">
<title>3&#45;&gt;4</title>
<path fill="none" stroke="black" d="M285.2,-69.75C291.05,-67.68 297.76,-65.52 304,-64 329.03,-57.92 358.15,-53.94 378.86,-51.61"/>
<polygon fill="black" stroke="black" points="379.28,-55.09 388.85,-50.55 378.54,-48.13 379.28,-55.09"/>
<text text-anchor="middle" x="337.5" y="-67.8" font-family="Times,serif" font-size="14.00">4,5: ab</text>
</g>
</g>
</svg>
